<svg width="16" height="17" viewBox="0 0 16 17" fill="none" xmlns="http://www.w3.org/2000/svg">
<g clip-path="url(#clip0_1160_3812)">
<g clip-path="url(#clip1_1160_3812)">
<path d="M7.90391 9.06855C9.09995 9.06855 10.0695 8.09897 10.0695 6.90293C10.0695 5.70689 9.09995 4.7373 7.90391 4.7373C6.70786 4.7373 5.73828 5.70689 5.73828 6.90293C5.73828 8.09897 6.70786 9.06855 7.90391 9.06855Z" fill="#FF3434"/>
<path d="M7.90422 0.799805C4.51797 0.799805 1.76172 3.55605 1.76172 6.94231C1.76172 9.10793 2.90359 11.0373 4.59672 12.1398C5.65984 13.1242 6.60484 13.9117 7.31359 15.4867L7.62859 16.3923C7.74672 16.6286 8.06172 16.6286 8.14047 16.3923L8.45547 15.4867C9.16422 13.9117 10.1092 13.1636 11.1723 12.1398C12.9048 11.0373 14.0073 9.14731 14.0073 6.94231C14.0467 3.55605 11.2905 0.799805 7.90422 0.799805ZM7.90422 9.10793C6.72297 9.10793 5.73859 8.16293 5.73859 6.94231C5.73859 5.72168 6.68359 4.77668 7.90422 4.77668C9.12484 4.77668 10.0698 5.72168 10.0698 6.94231C10.0698 8.16293 9.08547 9.10793 7.90422 9.10793Z" fill="white"/>
</g>
</g>
<defs>
<clipPath id="clip0_1160_3812">
<rect width="15.75" height="15.75" fill="white" transform="translate(0.0292969 0.799805)"/>
</clipPath>
<clipPath id="clip1_1160_3812">
<rect width="15.75" height="15.75" fill="white" transform="translate(0.0292969 0.799805)"/>
</clipPath>
</defs>
</svg>
