<svg width="13" height="17" viewBox="0 0 13 17" fill="none" xmlns="http://www.w3.org/2000/svg">
<path d="M6.38469 0.610352C2.99844 0.610352 0.242188 3.3666 0.242188 6.75285C0.242188 8.91848 1.38406 10.8479 3.07719 11.9504C4.14031 12.9347 5.08531 13.7222 5.79406 15.2972L6.10906 16.2029C6.22719 16.4391 6.54219 16.4391 6.62094 16.2029L6.93594 15.2972C7.64469 13.7222 8.58969 12.9741 9.65281 11.9504C11.3853 10.8479 12.4878 8.95785 12.4878 6.75285C12.5272 3.3666 9.77094 0.610352 6.38469 0.610352ZM6.38469 8.91848C5.20344 8.91848 4.21906 7.97348 4.21906 6.75285C4.21906 5.53223 5.16406 4.58723 6.38469 4.58723C7.60531 4.58723 8.55031 5.53223 8.55031 6.75285C8.55031 7.97348 7.56594 8.91848 6.38469 8.91848Z" fill="#FF3434"/>
</svg>
